<svg width="191" height="50" viewBox="0 0 191 50" fill="none" xmlns="http://www.w3.org/2000/svg">
<path d="M1.375 11.5938C1.375 11.0104 1.57292 10.5208 1.96875 10.125C2.38542 9.70833 2.88542 9.5 3.46875 9.5H21.6562C22.2396 9.5 22.7396 9.69792 23.1562 10.0938C23.5521 10.5104 23.75 11.0104 23.75 11.5938C23.75 12.1771 23.5417 12.6771 23.125 13.0938C22.7292 13.4896 22.2396 13.6875 21.6562 13.6875H14.6875V26.3438C14.5625 27.5938 13.875 28.2708 12.625 28.375C12.0417 28.375 11.5312 28.1875 11.0938 27.8125C10.6771 27.4167 10.4688 26.9271 10.4688 26.3438V13.6875H3.46875C2.88542 13.6875 2.39583 13.4792 2 13.0625C1.58333 12.6667 1.375 12.1771 1.375 11.5938ZM29.1875 13.4375C29.75 13.4583 30.2292 13.6667 30.625 14.0625C31.0208 14.4375 31.2292 14.9062 31.25 15.4688V26.2812C31.125 27.5312 30.4375 28.2083 29.1875 28.3125C28.6042 28.3125 28.0938 28.125 27.6562 27.75C27.2396 27.3542 27.0312 26.8646 27.0312 26.2812V15.4688C27.0521 14.8854 27.2708 14.4062 27.6875 14.0312C28.1042 13.6354 28.6042 13.4375 29.1875 13.4375ZM26.5625 9.375C26.5625 8.79167 26.8125 8.29167 27.3125 7.875C27.8125 7.45833 28.4167 7.25 29.125 7.25C29.8333 7.25 30.4375 7.45833 30.9375 7.875C31.4375 8.29167 31.6875 8.79167 31.6875 9.375C31.6875 9.97917 31.4375 10.4896 30.9375 10.9062C30.4375 11.3229 29.8333 11.5312 29.125 11.5312C28.4167 11.5312 27.8125 11.3229 27.3125 10.9062C26.8125 10.4896 26.5625 9.97917 26.5625 9.375ZM41.6875 13.2812C42.4167 13.2812 43.125 13.4062 43.8125 13.6562C44.5208 13.9062 45.1979 14.2708 45.8438 14.75C45.9479 14.8542 46.0625 14.9583 46.1875 15.0625C46.2917 14.9583 46.4062 14.8542 46.5312 14.75C47.1771 14.2708 47.8438 13.9062 48.5312 13.6562C49.2396 13.4062 49.9479 13.2812 50.6562 13.2812C51.3854 13.2812 52.0938 13.4062 52.7812 13.6562C53.4896 13.9062 54.1562 14.2812 54.7812 14.7812C55.4271 15.2604 55.9896 15.9062 56.4688 16.7188C56.9688 17.5312 57.2188 18.5 57.2188 19.625V26.2812C57.0938 27.5312 56.4062 28.2083 55.1562 28.3125C54.5729 28.3125 54.0625 28.125 53.625 27.75C53.2083 27.3542 53 26.8646 53 26.2812V19.875C53 19.375 52.9062 18.9583 52.7188 18.625C52.5312 18.2708 52.3229 18 52.0938 17.8125C51.8646 17.6042 51.625 17.4583 51.375 17.375C51.125 17.2708 50.875 17.2188 50.625 17.2188C50.375 17.2188 50.125 17.2708 49.875 17.375C49.6458 17.4583 49.4167 17.6042 49.1875 17.8125C48.9583 18 48.75 18.2708 48.5625 18.625C48.375 18.9583 48.2708 19.375 48.25 19.875V26.2812C48.125 27.5312 47.4375 28.2083 46.1875 28.3125C45.6042 28.3125 45.0938 28.125 44.6562 27.75C44.2396 27.3542 44.0312 26.8646 44.0312 26.2812V19.875C44.0312 19.375 43.9375 18.9583 43.75 18.625C43.5625 18.2708 43.3542 18 43.125 17.8125C42.8958 17.6042 42.6562 17.4583 42.4062 17.375C42.1562 17.2708 41.9062 17.2188 41.6562 17.2188C41.4062 17.2188 41.1562 17.2708 40.9062 17.375C40.6771 17.4583 40.4479 17.6042 40.2188 17.8125C39.9896 18 39.7812 18.2708 39.5938 18.625C39.4062 18.9583 39.3021 19.375 39.2812 19.875V26.2812C39.1771 27.5312 38.5 28.2083 37.25 28.3125C36.6667 28.3125 36.1562 28.125 35.7188 27.75C35.3021 27.3542 35.0938 26.8646 35.0938 26.2812V19.625C35.1354 18.5 35.3958 17.5312 35.875 16.7188C36.3542 15.9062 36.9167 15.2604 37.5625 14.7812C38.2083 14.2812 38.875 13.9062 39.5625 13.6562C40.2708 13.4062 40.9792 13.2812 41.6875 13.2812ZM63.25 13.4375C63.8125 13.4583 64.2917 13.6667 64.6875 14.0625C65.0833 14.4375 65.2917 14.9062 65.3125 15.4688V26.2812C65.1875 27.5312 64.5 28.2083 63.25 28.3125C62.6667 28.3125 62.1562 28.125 61.7188 27.75C61.3021 27.3542 61.0938 26.8646 61.0938 26.2812V15.4688C61.1146 14.8854 61.3333 14.4062 61.75 14.0312C62.1667 13.6354 62.6667 13.4375 63.25 13.4375ZM60.625 9.375C60.625 8.79167 60.875 8.29167 61.375 7.875C61.875 7.45833 62.4792 7.25 63.1875 7.25C63.8958 7.25 64.5 7.45833 65 7.875C65.5 8.29167 65.75 8.79167 65.75 9.375C65.75 9.97917 65.5 10.4896 65 10.9062C64.5 11.3229 63.8958 11.5312 63.1875 11.5312C62.4792 11.5312 61.875 11.3229 61.375 10.9062C60.875 10.4896 60.625 9.97917 60.625 9.375ZM79.0938 13.2812C80.1771 13.2812 81.2396 13.4062 82.2812 13.6562C83.3438 13.9062 84.3542 14.2812 85.3125 14.7812C86.2708 15.2604 87.1146 15.9062 87.8438 16.7188C88.5938 17.5312 89 18.5 89.0625 19.625V20.9375V26.2812C88.9375 27.5312 88.25 28.2083 87 28.3125C86.4167 28.3125 85.9062 28.125 85.4688 27.75C85.0521 27.3542 84.8438 26.8646 84.8438 26.2812V24.9062V20.5938C84.8021 19.9479 84.5521 19.4167 84.0938 19C83.6562 18.5625 83.1562 18.2188 82.5938 17.9688C82.0521 17.7188 81.4792 17.5312 80.875 17.4062C80.2917 17.2812 79.6979 17.2188 79.0938 17.2188C78.4896 17.2188 77.8854 17.2812 77.2812 17.4062C76.6979 17.5312 76.125 17.7188 75.5625 17.9688C75.0208 18.2188 74.5208 18.5625 74.0625 19C73.625 19.4167 73.3854 19.9479 73.3438 20.5938V24.9062V26.2812C73.2396 27.5312 72.5625 28.2083 71.3125 28.3125C70.7292 28.3125 70.2188 28.125 69.7812 27.75C69.3646 27.3542 69.1562 26.8646 69.1562 26.2812V20.9375V19.625C69.2188 18.5 69.6146 17.5312 70.3438 16.7188C71.0729 15.9062 71.9167 15.2604 72.875 14.7812C73.8333 14.2812 74.8333 13.9062 75.875 13.6562C76.9375 13.4062 78.0104 13.2812 79.0938 13.2812ZM110.5 26.2812V18.75C110.5 18.2292 110.229 17.9583 109.688 17.9375H98.75C98.3542 17.9583 98.0104 18.1354 97.7188 18.4688C97.4271 18.7812 97.2083 19.1562 97.0625 19.5938C96.9375 20.0104 96.875 20.4375 96.875 20.875C96.875 21.2917 96.9375 21.7188 97.0625 22.1562C97.2083 22.5729 97.4271 22.9479 97.7188 23.2812C98.0104 23.5938 98.3542 23.75 98.75 23.75H106.75C107.333 23.75 107.823 23.9583 108.219 24.375C108.635 24.7708 108.844 25.2604 108.844 25.8438C108.844 26.4271 108.635 26.9167 108.219 27.3125C107.823 27.7292 107.333 27.9375 106.75 27.9375H98.875C97.4167 27.9167 96.2083 27.5104 95.25 26.7188C94.3125 25.9062 93.6354 25 93.2188 24C92.8229 22.9792 92.625 21.9271 92.625 20.8438C92.625 19.8021 92.8333 18.7812 93.25 17.7812C93.6667 16.7604 94.3438 15.8542 95.2812 15.0625C96.2188 14.25 97.6042 13.8125 99.4375 13.75H112.562C113.146 13.75 113.646 13.9479 114.062 14.3438C114.479 14.7188 114.698 15.1979 114.719 15.7812V26.2812C114.719 26.8646 114.5 27.3542 114.062 27.75C113.646 28.125 113.146 28.3125 112.562 28.3125C111.312 28.2083 110.625 27.5312 110.5 26.2812ZM125.531 9C126.115 9 126.615 9.19792 127.031 9.59375C127.448 9.96875 127.667 10.4479 127.688 11.0312V13.75H138.312C138.896 13.75 139.396 13.9479 139.812 14.3438C140.208 14.7604 140.406 15.2604 140.406 15.8438C140.406 16.4271 140.198 16.9271 139.781 17.3438C139.385 17.7396 138.896 17.9375 138.312 17.9375H127.688V18.5625C127.667 19.4167 127.719 20.2083 127.844 20.9375C127.99 21.6458 128.323 22.2812 128.844 22.8438C129.365 23.4062 130.021 23.7083 130.812 23.75H138.438C139.021 23.7708 139.5 23.9896 139.875 24.4062C140.271 24.8229 140.469 25.3229 140.469 25.9062C140.448 26.4688 140.24 26.9479 139.844 27.3438C139.469 27.7188 139 27.9167 138.438 27.9375H129.75C128.292 27.8542 127.083 27.3646 126.125 26.4688C125.188 25.5521 124.51 24.4375 124.094 23.125C123.698 21.8125 123.49 20.4167 123.469 18.9375V17.9375H119.875C119.292 17.9375 118.802 17.7292 118.406 17.3125C117.99 16.9167 117.781 16.4271 117.781 15.8438C117.781 15.2604 117.979 14.7708 118.375 14.375C118.792 13.9583 119.292 13.75 119.875 13.75H123.469V11.0312C123.49 10.4688 123.698 10 124.094 9.625C124.49 9.22917 124.969 9.02083 125.531 9ZM149.938 27.9375C148.104 27.875 146.719 27.4479 145.781 26.6562C144.844 25.8438 144.167 24.9375 143.75 23.9375C143.333 22.9167 143.125 21.8854 143.125 20.8438C143.125 19.7604 143.323 18.7188 143.719 17.7188C144.135 16.6979 144.812 15.7917 145.75 15C146.708 14.1875 147.917 13.7708 149.375 13.75H159.5C160.958 13.7708 162.156 14.1875 163.094 15C164.052 15.7917 164.729 16.6979 165.125 17.7188C165.542 18.7188 165.75 19.7604 165.75 20.8438C165.75 21.8854 165.542 22.9167 165.125 23.9375C164.708 24.9375 164.031 25.8438 163.094 26.6562C162.156 27.4479 160.771 27.875 158.938 27.9375H149.938ZM149.25 17.9375C148.854 17.9375 148.51 18.1042 148.219 18.4375C147.927 18.75 147.708 19.125 147.562 19.5625C147.438 19.9792 147.375 20.3958 147.375 20.8125C147.375 21.25 147.438 21.6875 147.562 22.125C147.708 22.5417 147.927 22.9167 148.219 23.25C148.51 23.5625 148.854 23.7292 149.25 23.75H159.625C160.021 23.7292 160.365 23.5625 160.656 23.25C160.948 22.9167 161.156 22.5417 161.281 22.125C161.427 21.6875 161.5 21.25 161.5 20.8125C161.5 20.3958 161.427 19.9792 161.281 19.5625C161.156 19.125 160.948 18.75 160.656 18.4375C160.365 18.1042 160.021 17.9375 159.625 17.9375H149.25ZM170 17.6875C170.396 16.6875 171.062 15.7917 172 15C172.958 14.1875 174.167 13.7708 175.625 13.75H187.375C187.958 13.75 188.448 13.9583 188.844 14.375C189.26 14.7708 189.469 15.2604 189.469 15.8438C189.469 16.4271 189.26 16.9271 188.844 17.3438C188.448 17.7396 187.958 17.9375 187.375 17.9375H175.5C175.104 17.9375 174.76 18.1042 174.469 18.4375C174.177 18.75 173.948 19.125 173.781 19.5625C173.635 20 173.562 20.4167 173.562 20.8125V26.2812C173.438 27.5312 172.75 28.2083 171.5 28.3125C170.917 28.3125 170.406 28.125 169.969 27.75C169.552 27.3542 169.344 26.8646 169.344 26.2812V20.8438H169.375C169.375 19.7604 169.583 18.7083 170 17.6875Z" fill="black"/>
<path d="M29.3203 47H28.0098V39.083H29.3203V47ZM31.834 39.0293C32.0488 39.0293 32.2314 39.1045 32.3818 39.2549C32.5322 39.4053 32.6074 39.5843 32.6074 39.792C32.6074 39.8278 32.6038 39.9137 32.5967 40.0498C32.5895 40.1787 32.5573 40.3363 32.5 40.5225C32.4427 40.7087 32.3424 40.9163 32.1992 41.1455C32.0632 41.3675 31.8626 41.5895 31.5977 41.8115H31.0928C31.236 41.6755 31.3542 41.5322 31.4473 41.3818C31.5404 41.2314 31.6156 41.0954 31.6729 40.9736C31.7373 40.8376 31.791 40.7015 31.834 40.5654C31.6191 40.5654 31.4365 40.4902 31.2861 40.3398C31.1429 40.1895 31.0713 40.0068 31.0713 39.792C31.0713 39.5771 31.1429 39.3981 31.2861 39.2549C31.4365 39.1045 31.6191 39.0293 31.834 39.0293ZM35.4756 45.1523C35.4756 45.3958 35.5078 45.5892 35.5723 45.7324C35.6367 45.8685 35.7262 45.9723 35.8408 46.0439C35.9554 46.1084 36.0843 46.1514 36.2275 46.1729C36.3779 46.1943 36.5391 46.2051 36.7109 46.2051V47C36.6178 47.0143 36.5212 47.0251 36.4209 47.0322C36.3421 47.0394 36.249 47.043 36.1416 47.043C36.0342 47.0501 35.9268 47.0537 35.8193 47.0537C35.7119 47.0537 35.6045 47.0501 35.4971 47.043C35.3896 47.0358 35.293 47.0251 35.207 47.0107C34.9635 46.9606 34.7738 46.8532 34.6377 46.6885C34.5016 46.5238 34.3978 46.3411 34.3262 46.1406C34.2546 45.9329 34.208 45.7324 34.1865 45.5391C34.1722 45.3457 34.165 45.1953 34.165 45.0879V44.959V38.6533H35.4756V45.1523ZM39.375 45.1523C39.375 45.3958 39.4072 45.5892 39.4717 45.7324C39.5361 45.8685 39.6257 45.9723 39.7402 46.0439C39.8548 46.1084 39.9837 46.1514 40.127 46.1729C40.2773 46.1943 40.4385 46.2051 40.6104 46.2051V47C40.5173 47.0143 40.4206 47.0251 40.3203 47.0322C40.2415 47.0394 40.1484 47.043 40.041 47.043C39.9336 47.0501 39.8262 47.0537 39.7188 47.0537C39.6113 47.0537 39.5039 47.0501 39.3965 47.043C39.2891 47.0358 39.1924 47.0251 39.1064 47.0107C38.863 46.9606 38.6732 46.8532 38.5371 46.6885C38.401 46.5238 38.2972 46.3411 38.2256 46.1406C38.154 45.9329 38.1074 45.7324 38.0859 45.5391C38.0716 45.3457 38.0645 45.1953 38.0645 45.0879V44.959V38.6533H39.375V45.1523ZM44.9287 38.6533H46.2285V46.2803C46.2214 46.3805 46.2106 46.4951 46.1963 46.624C46.182 46.7529 46.1712 46.8783 46.1641 47H44.9287V38.6533ZM50.2246 42.7783C50.3105 43.1077 50.3535 43.4694 50.3535 43.8633C50.3535 44.2715 50.3034 44.6689 50.2031 45.0557C50.11 45.4424 49.9632 45.7861 49.7627 46.0869C49.5693 46.3805 49.3223 46.6169 49.0215 46.7959C48.7279 46.9678 48.3805 47.0537 47.9795 47.0537C47.7288 47.0537 47.4889 47.0251 47.2598 46.9678C47.0306 46.9105 46.8337 46.8317 46.6689 46.7314V45.6143C46.7764 45.736 46.9017 45.8363 47.0449 45.915C47.1953 45.9938 47.36 46.0332 47.5391 46.0332C47.7539 46.0332 47.9473 45.9795 48.1191 45.8721C48.2982 45.7646 48.4486 45.6214 48.5703 45.4424C48.6992 45.2562 48.7995 45.0378 48.8711 44.7871C48.9499 44.5365 48.9893 44.2679 48.9893 43.9814C48.9893 43.7021 48.9535 43.4372 48.8818 43.1865C48.8174 42.9359 48.7243 42.7139 48.6025 42.5205C48.488 42.3271 48.3447 42.1732 48.1729 42.0586C48.001 41.944 47.8076 41.8867 47.5928 41.8867C47.4066 41.8867 47.2347 41.9261 47.0771 42.0049C46.9268 42.0765 46.7907 42.1839 46.6689 42.3271V41.1777C46.8337 41.0846 47.0163 41.013 47.2168 40.9629C47.4173 40.9128 47.625 40.8877 47.8398 40.8877C48.0762 40.8877 48.3161 40.9199 48.5596 40.9844C48.8031 41.0488 49.0286 41.1562 49.2363 41.3066C49.4512 41.457 49.6445 41.654 49.8164 41.8975C49.9954 42.141 50.1315 42.4346 50.2246 42.7783ZM54.6289 40.8877C55.0156 40.9235 55.363 41.0273 55.6709 41.1992C55.986 41.3711 56.2546 41.5931 56.4766 41.8652C56.6986 42.1374 56.8669 42.4489 56.9814 42.7998C57.1032 43.1507 57.1641 43.516 57.1641 43.8955C57.1641 44.0674 57.1533 44.2393 57.1318 44.4111H53.4473V43.4658H55.9287C55.9287 43.2796 55.8965 43.1006 55.832 42.9287C55.7747 42.7568 55.6852 42.5993 55.5635 42.4561C55.4489 42.3057 55.3128 42.1803 55.1553 42.0801C54.9977 41.9798 54.8223 41.9189 54.6289 41.8975V40.8877ZM54.5859 45.9902C54.6647 45.9902 54.7614 45.9831 54.876 45.9688C54.9977 45.9473 55.123 45.915 55.252 45.8721C55.388 45.8219 55.5205 45.7611 55.6494 45.6895C55.7855 45.6178 55.9036 45.5319 56.0039 45.4316L56.4766 46.1514C56.2402 46.445 55.9645 46.667 55.6494 46.8174C55.3343 46.9678 54.9333 47.043 54.4463 47.043C54.0524 47.043 53.6836 46.9642 53.3398 46.8066C52.9961 46.6419 52.7025 46.4199 52.459 46.1406C52.2155 45.8613 52.0221 45.5355 51.8789 45.1631C51.7357 44.7907 51.6641 44.3896 51.6641 43.96C51.6641 43.5518 51.7285 43.165 51.8574 42.7998C51.9935 42.4346 52.1761 42.1159 52.4053 41.8438C52.6344 41.5645 52.8994 41.3389 53.2002 41.167C53.5081 40.9951 53.8376 40.8984 54.1885 40.877V41.9082C53.9235 41.9583 53.7051 42.0658 53.5332 42.2305C53.3613 42.3952 53.2253 42.585 53.125 42.7998C53.0319 43.0075 52.9639 43.2223 52.9209 43.4443C52.8851 43.6663 52.8672 43.8561 52.8672 44.0137C52.8672 44.293 52.8994 44.5544 52.9639 44.7979C53.0355 45.0342 53.1429 45.2419 53.2861 45.4209C53.4294 45.5928 53.6048 45.7324 53.8125 45.8398C54.0273 45.9401 54.2852 45.9902 54.5859 45.9902ZM61.8906 38.6533H63.1904V46.2803C63.1833 46.3805 63.1725 46.4951 63.1582 46.624C63.1439 46.7529 63.1331 46.8783 63.126 47H61.8906V38.6533ZM67.1865 42.7783C67.2725 43.1077 67.3154 43.4694 67.3154 43.8633C67.3154 44.2715 67.2653 44.6689 67.165 45.0557C67.0719 45.4424 66.9251 45.7861 66.7246 46.0869C66.5312 46.3805 66.2842 46.6169 65.9834 46.7959C65.6898 46.9678 65.3424 47.0537 64.9414 47.0537C64.6908 47.0537 64.4508 47.0251 64.2217 46.9678C63.9925 46.9105 63.7956 46.8317 63.6309 46.7314V45.6143C63.7383 45.736 63.8636 45.8363 64.0068 45.915C64.1572 45.9938 64.3219 46.0332 64.501 46.0332C64.7158 46.0332 64.9092 45.9795 65.0811 45.8721C65.2601 45.7646 65.4105 45.6214 65.5322 45.4424C65.6611 45.2562 65.7614 45.0378 65.833 44.7871C65.9118 44.5365 65.9512 44.2679 65.9512 43.9814C65.9512 43.7021 65.9154 43.4372 65.8438 43.1865C65.7793 42.9359 65.6862 42.7139 65.5645 42.5205C65.4499 42.3271 65.3066 42.1732 65.1348 42.0586C64.9629 41.944 64.7695 41.8867 64.5547 41.8867C64.3685 41.8867 64.1966 41.9261 64.0391 42.0049C63.8887 42.0765 63.7526 42.1839 63.6309 42.3271V41.1777C63.7956 41.0846 63.9782 41.013 64.1787 40.9629C64.3792 40.9128 64.5869 40.8877 64.8018 40.8877C65.0381 40.8877 65.278 40.9199 65.5215 40.9844C65.765 41.0488 65.9906 41.1562 66.1982 41.3066C66.4131 41.457 66.6064 41.654 66.7783 41.8975C66.9574 42.141 67.0934 42.4346 67.1865 42.7783ZM69.8291 45.1738C69.8291 45.4961 69.8936 45.736 70.0225 45.8936C70.1585 46.0511 70.3519 46.1442 70.6025 46.1729V47.043C70.5739 47.0501 70.5273 47.0537 70.4629 47.0537C70.2194 47.0537 69.9831 47.0215 69.7539 46.957C69.5319 46.8926 69.335 46.7887 69.1631 46.6455C68.9912 46.5023 68.8551 46.3125 68.7549 46.0762C68.6618 45.8398 68.6152 45.5498 68.6152 45.2061C68.6152 44.8766 68.6833 44.5938 68.8193 44.3574C68.9626 44.1139 69.1416 43.917 69.3564 43.7666C69.5785 43.609 69.8291 43.4945 70.1084 43.4229C70.3877 43.3441 70.6706 43.3047 70.957 43.3047H71.4297V44.0674H71.1934C71.0501 44.0674 70.8997 44.0817 70.7422 44.1104C70.5846 44.139 70.4378 44.1927 70.3018 44.2715C70.1657 44.3503 70.0511 44.4648 69.958 44.6152C69.8721 44.7585 69.8291 44.9447 69.8291 45.1738ZM73.1699 45.2061C73.1699 45.2633 73.1735 45.3493 73.1807 45.4639C73.1878 45.5713 73.2021 45.6823 73.2236 45.7969C73.2451 45.9115 73.2773 46.0153 73.3203 46.1084C73.3704 46.2015 73.4349 46.2624 73.5137 46.291L73.1699 47.0107C73.0768 47.0107 72.9766 46.9893 72.8691 46.9463C72.7689 46.9033 72.6686 46.8424 72.5684 46.7637C72.4753 46.6849 72.3929 46.599 72.3213 46.5059C72.2568 46.4056 72.2067 46.2982 72.1709 46.1836C72.0993 46.3626 71.9561 46.5238 71.7412 46.667C71.5335 46.8031 71.3008 46.9033 71.043 46.9678V46.1514C71.2148 46.1156 71.3688 46.0475 71.5049 45.9473C71.6481 45.8398 71.7699 45.7145 71.8701 45.5713V43.3047C71.8701 42.9538 71.8522 42.6745 71.8164 42.4668C71.7806 42.2591 71.7197 42.1087 71.6338 42.0156C71.5479 41.9154 71.4404 41.8545 71.3115 41.833C71.1898 41.8044 71.043 41.79 70.8711 41.79C70.7135 41.79 70.5632 41.8115 70.4199 41.8545C70.2839 41.8903 70.1549 41.9368 70.0332 41.9941C69.9186 42.0443 69.8148 42.1016 69.7217 42.166C69.6357 42.2305 69.5713 42.2806 69.5283 42.3164L69.0449 41.5752C69.1165 41.4964 69.224 41.4176 69.3672 41.3389C69.5104 41.2529 69.6751 41.1777 69.8613 41.1133C70.0475 41.0488 70.248 40.9987 70.4629 40.9629C70.6849 40.9199 70.9141 40.8984 71.1504 40.8984C71.3652 40.8984 71.5729 40.9199 71.7734 40.9629C71.9811 41.0059 72.1673 41.0775 72.332 41.1777C72.5039 41.278 72.6507 41.4141 72.7725 41.5859C72.9014 41.7507 72.9909 41.9583 73.041 42.209C73.0911 42.4596 73.1234 42.7139 73.1377 42.9717C73.1592 43.2223 73.1699 43.473 73.1699 43.7236V45.1201V45.2061ZM79.25 42.5098C79.1426 42.3809 78.9922 42.2627 78.7988 42.1553C78.6126 42.0407 78.362 41.9727 78.0469 41.9512V40.9199C78.4408 40.9414 78.7773 41.0273 79.0566 41.1777C79.3431 41.321 79.6009 41.5322 79.8301 41.8115L79.25 42.5098ZM78.0469 45.9795C78.3047 45.9508 78.5231 45.89 78.7021 45.7969C78.8883 45.6966 79.0638 45.582 79.2285 45.4531L79.7119 46.1514C79.4899 46.4307 79.25 46.6455 78.9922 46.7959C78.7344 46.9391 78.4193 47.0215 78.0469 47.043V45.9795ZM75.0498 43.9707C75.0498 43.5625 75.1071 43.1794 75.2217 42.8213C75.3434 42.4632 75.5189 42.1481 75.748 41.876C75.9772 41.6038 76.2458 41.3854 76.5537 41.2207C76.8688 41.0488 77.2197 40.9486 77.6064 40.9199V41.9619C77.2484 42.0407 76.9619 42.2627 76.7471 42.6279C76.5322 42.986 76.4248 43.4229 76.4248 43.9385C76.4248 44.2035 76.4499 44.4541 76.5 44.6904C76.5573 44.9196 76.6361 45.1237 76.7363 45.3027C76.8366 45.4818 76.9583 45.6322 77.1016 45.7539C77.252 45.8757 77.4202 45.9508 77.6064 45.9795V47.043C77.2126 47.0215 76.8581 46.9284 76.543 46.7637C76.2279 46.5918 75.9593 46.3698 75.7373 46.0977C75.5153 45.8184 75.3434 45.4961 75.2217 45.1309C75.1071 44.7656 75.0498 44.3789 75.0498 43.9707ZM84.041 43.96L86.4473 47H84.9648L83.2031 44.6797V43.1865L84.707 40.9414H86.168L84.041 43.96ZM81.4521 47V38.6533H82.7627V47H81.4521ZM91.625 47.6553C91.4674 47.4548 91.3171 47.1826 91.1738 46.8389C91.0306 46.4951 90.9017 46.1156 90.7871 45.7002C90.6797 45.2777 90.5902 44.8408 90.5186 44.3896C90.4469 43.9385 90.4111 43.516 90.4111 43.1221C90.4111 42.7497 90.4434 42.3522 90.5078 41.9297C90.5723 41.5072 90.651 41.099 90.7441 40.7051C90.8444 40.304 90.959 39.9424 91.0879 39.6201C91.224 39.2979 91.36 39.0472 91.4961 38.8682H92.1729C92.1156 38.9469 92.0368 39.1081 91.9365 39.3516C91.8434 39.5879 91.7503 39.8958 91.6572 40.2754C91.5713 40.6549 91.4889 41.1025 91.4102 41.6182C91.3385 42.1266 91.2992 42.6995 91.292 43.3369C91.2848 43.8955 91.3242 44.4183 91.4102 44.9053C91.4961 45.3923 91.5999 45.8255 91.7217 46.2051C91.8434 46.5775 91.9616 46.889 92.0762 47.1396C92.1979 47.3975 92.2946 47.5693 92.3662 47.6553H91.625ZM96.7168 40.9092C97.1107 40.9307 97.4688 41.0273 97.791 41.1992C98.1133 41.3639 98.3818 41.5859 98.5967 41.8652C98.8187 42.1374 98.9906 42.4561 99.1123 42.8213C99.234 43.1865 99.2949 43.5768 99.2949 43.9922C99.2949 44.4076 99.2305 44.7979 99.1016 45.1631C98.9798 45.5212 98.8079 45.8363 98.5859 46.1084C98.3639 46.3734 98.0918 46.5882 97.7695 46.7529C97.4473 46.9176 97.0964 47.0143 96.7168 47.043V46.0117C97.0749 45.9329 97.3649 45.7074 97.5869 45.335C97.8161 44.9626 97.9307 44.515 97.9307 43.9922C97.9307 43.7272 97.902 43.4801 97.8447 43.251C97.7946 43.0146 97.7158 42.8034 97.6084 42.6172C97.501 42.431 97.3721 42.277 97.2217 42.1553C97.0713 42.0335 96.903 41.9548 96.7168 41.9189V40.9092ZM93.7197 43.9707C93.7197 43.5553 93.7806 43.1686 93.9023 42.8105C94.0241 42.4525 94.196 42.141 94.418 41.876C94.6471 41.6038 94.9193 41.3854 95.2344 41.2207C95.5495 41.056 95.8968 40.9557 96.2764 40.9199V41.9189C95.9183 41.9977 95.6318 42.2233 95.417 42.5957C95.2021 42.9681 95.0947 43.4157 95.0947 43.9385C95.0947 44.2035 95.1198 44.4541 95.1699 44.6904C95.2272 44.9268 95.306 45.138 95.4062 45.3242C95.5065 45.5104 95.6283 45.6644 95.7715 45.7861C95.9219 45.9079 96.0902 45.9831 96.2764 46.0117V47.043C95.8825 47.0143 95.528 46.9176 95.2129 46.7529C94.8978 46.5811 94.6292 46.359 94.4072 46.0869C94.1852 45.8148 94.0133 45.4961 93.8916 45.1309C93.777 44.7656 93.7197 44.3789 93.7197 43.9707ZM102.142 40.9414L102.281 41.5537V47H100.981V40.9414H102.142ZM105.493 41.6074C105.615 41.7292 105.708 41.8724 105.772 42.0371C105.844 42.1947 105.894 42.363 105.923 42.542C105.959 42.7139 105.98 42.8893 105.987 43.0684C105.994 43.2474 105.998 43.4229 105.998 43.5947V46.7852V47H104.688V43.7021C104.688 43.4587 104.677 43.2259 104.655 43.0039C104.634 42.7819 104.584 42.585 104.505 42.4131C104.426 42.2412 104.319 42.1087 104.183 42.0156C104.047 41.9154 103.857 41.8652 103.613 41.8652C103.513 41.8652 103.377 41.8831 103.205 41.9189C103.04 41.9476 102.879 41.9977 102.722 42.0693V41.2422C102.915 41.1419 103.123 41.056 103.345 40.9844C103.574 40.9128 103.796 40.877 104.011 40.877C104.333 40.877 104.605 40.945 104.827 41.0811C105.049 41.21 105.271 41.3854 105.493 41.6074ZM110.596 42.6709C110.596 42.3988 110.646 42.1553 110.746 41.9404C110.846 41.7184 110.986 41.5322 111.165 41.3818C111.344 41.2243 111.545 41.1025 111.767 41.0166C111.996 40.9235 112.232 40.8662 112.476 40.8447V41.9189C112.289 41.9548 112.143 42.0299 112.035 42.1445C111.935 42.2591 111.885 42.4202 111.885 42.6279C111.885 42.7998 111.938 42.9395 112.046 43.0469C112.16 43.1471 112.304 43.2367 112.476 43.3154V44.4648C112.354 44.429 112.229 44.3896 112.1 44.3467C111.978 44.2965 111.856 44.2428 111.734 44.1855C111.355 43.985 111.068 43.7738 110.875 43.5518C110.689 43.3298 110.596 43.0361 110.596 42.6709ZM114.184 42.2197C113.99 42.1195 113.783 42.0443 113.561 41.9941C113.346 41.944 113.131 41.9118 112.916 41.8975V40.834C113.238 40.8483 113.535 40.8949 113.808 40.9736C114.08 41.0452 114.345 41.1634 114.603 41.3281L114.184 42.2197ZM111.165 45.6465C111.308 45.7467 111.477 45.8398 111.67 45.9258C111.87 46.0117 112.121 46.0547 112.422 46.0547H112.476V47.0537C112.297 47.0537 112.132 47.0465 111.981 47.0322C111.831 47.0251 111.681 47.0036 111.53 46.9678C111.387 46.9248 111.24 46.8675 111.09 46.7959C110.939 46.7243 110.782 46.6312 110.617 46.5166L111.165 45.6465ZM112.916 43.4873C113.131 43.5589 113.349 43.6377 113.571 43.7236C113.793 43.8096 113.994 43.917 114.173 44.0459C114.359 44.1748 114.509 44.3359 114.624 44.5293C114.746 44.7155 114.807 44.9518 114.807 45.2383C114.807 45.5176 114.757 45.7611 114.656 45.9688C114.556 46.1764 114.42 46.3555 114.248 46.5059C114.083 46.6562 113.886 46.7744 113.657 46.8604C113.428 46.9463 113.181 47.0036 112.916 47.0322V46.0117C113.16 45.9688 113.346 45.8936 113.475 45.7861C113.611 45.6715 113.679 45.5212 113.679 45.335C113.679 45.1488 113.604 45.0055 113.453 44.9053C113.31 44.7979 113.131 44.7048 112.916 44.626V43.4873ZM120.521 42.5098C120.414 42.3809 120.264 42.2627 120.07 42.1553C119.884 42.0407 119.633 41.9727 119.318 41.9512V40.9199C119.712 40.9414 120.049 41.0273 120.328 41.1777C120.615 41.321 120.872 41.5322 121.102 41.8115L120.521 42.5098ZM119.318 45.9795C119.576 45.9508 119.795 45.89 119.974 45.7969C120.16 45.6966 120.335 45.582 120.5 45.4531L120.983 46.1514C120.761 46.4307 120.521 46.6455 120.264 46.7959C120.006 46.9391 119.691 47.0215 119.318 47.043V45.9795ZM116.321 43.9707C116.321 43.5625 116.379 43.1794 116.493 42.8213C116.615 42.4632 116.79 42.1481 117.02 41.876C117.249 41.6038 117.517 41.3854 117.825 41.2207C118.14 41.0488 118.491 40.9486 118.878 40.9199V41.9619C118.52 42.0407 118.233 42.2627 118.019 42.6279C117.804 42.986 117.696 43.4229 117.696 43.9385C117.696 44.2035 117.721 44.4541 117.771 44.6904C117.829 44.9196 117.908 45.1237 118.008 45.3027C118.108 45.4818 118.23 45.6322 118.373 45.7539C118.523 45.8757 118.692 45.9508 118.878 45.9795V47.043C118.484 47.0215 118.13 46.9284 117.814 46.7637C117.499 46.5918 117.231 46.3698 117.009 46.0977C116.787 45.8184 116.615 45.4961 116.493 45.1309C116.379 44.7656 116.321 44.3789 116.321 43.9707ZM122.777 38.6533H124.077V47H122.777V38.6533ZM127.289 41.6074C127.411 41.7292 127.504 41.8724 127.568 42.0371C127.64 42.1947 127.69 42.363 127.719 42.542C127.755 42.7139 127.776 42.8893 127.783 43.0684C127.79 43.2474 127.794 43.4229 127.794 43.5947V46.7852V47H126.483V43.7021C126.483 43.4587 126.473 43.2259 126.451 43.0039C126.43 42.7819 126.38 42.585 126.301 42.4131C126.222 42.2412 126.115 42.1087 125.979 42.0156C125.842 41.9154 125.653 41.8652 125.409 41.8652C125.309 41.8652 125.173 41.8831 125.001 41.9189C124.836 41.9476 124.675 41.9977 124.518 42.0693V41.2422C124.711 41.1419 124.919 41.056 125.141 40.9844C125.37 40.9128 125.592 40.877 125.807 40.877C126.129 40.877 126.401 40.945 126.623 41.0811C126.845 41.21 127.067 41.3854 127.289 41.6074ZM132.134 40.8877C132.521 40.9235 132.868 41.0273 133.176 41.1992C133.491 41.3711 133.759 41.5931 133.981 41.8652C134.203 42.1374 134.372 42.4489 134.486 42.7998C134.608 43.1507 134.669 43.516 134.669 43.8955C134.669 44.0674 134.658 44.2393 134.637 44.4111H130.952V43.4658H133.434C133.434 43.2796 133.401 43.1006 133.337 42.9287C133.28 42.7568 133.19 42.5993 133.068 42.4561C132.954 42.3057 132.818 42.1803 132.66 42.0801C132.503 41.9798 132.327 41.9189 132.134 41.8975V40.8877ZM132.091 45.9902C132.17 45.9902 132.266 45.9831 132.381 45.9688C132.503 45.9473 132.628 45.915 132.757 45.8721C132.893 45.8219 133.025 45.7611 133.154 45.6895C133.29 45.6178 133.409 45.5319 133.509 45.4316L133.981 46.1514C133.745 46.445 133.469 46.667 133.154 46.8174C132.839 46.9678 132.438 47.043 131.951 47.043C131.557 47.043 131.188 46.9642 130.845 46.8066C130.501 46.6419 130.207 46.4199 129.964 46.1406C129.72 45.8613 129.527 45.5355 129.384 45.1631C129.241 44.7907 129.169 44.3896 129.169 43.96C129.169 43.5518 129.233 43.165 129.362 42.7998C129.498 42.4346 129.681 42.1159 129.91 41.8438C130.139 41.5645 130.404 41.3389 130.705 41.167C131.013 40.9951 131.342 40.8984 131.693 40.877V41.9082C131.428 41.9583 131.21 42.0658 131.038 42.2305C130.866 42.3952 130.73 42.585 130.63 42.7998C130.537 43.0075 130.469 43.2223 130.426 43.4443C130.39 43.6663 130.372 43.8561 130.372 44.0137C130.372 44.293 130.404 44.5544 130.469 44.7979C130.54 45.0342 130.648 45.2419 130.791 45.4209C130.934 45.5928 131.11 45.7324 131.317 45.8398C131.532 45.9401 131.79 45.9902 132.091 45.9902ZM141.501 38.6533V47H140.266L140.19 46.2803V38.6533H141.501ZM136.065 43.8848C136.065 43.3262 136.141 42.8571 136.291 42.4775C136.449 42.098 136.649 41.79 136.893 41.5537C137.136 41.3174 137.405 41.1491 137.698 41.0488C137.999 40.9414 138.293 40.8877 138.579 40.8877C138.801 40.8877 139.012 40.9128 139.213 40.9629C139.413 41.013 139.592 41.0846 139.75 41.1777V42.3164C139.628 42.1875 139.492 42.0837 139.342 42.0049C139.191 41.9261 139.023 41.8867 138.837 41.8867C138.615 41.8867 138.418 41.944 138.246 42.0586C138.074 42.166 137.927 42.3164 137.806 42.5098C137.691 42.7031 137.602 42.9251 137.537 43.1758C137.473 43.4264 137.44 43.695 137.44 43.9814C137.44 44.2679 137.476 44.5365 137.548 44.7871C137.619 45.0306 137.716 45.2454 137.838 45.4316C137.96 45.6178 138.106 45.7646 138.278 45.8721C138.457 45.9795 138.651 46.0332 138.858 46.0332C139.209 46.0332 139.507 45.8936 139.75 45.6143V46.7314C139.578 46.8245 139.378 46.9033 139.148 46.9678C138.926 47.0251 138.69 47.0537 138.439 47.0537C138.153 47.0537 137.87 47.0036 137.591 46.9033C137.319 46.7959 137.075 46.624 136.86 46.3877C136.588 46.0798 136.388 45.7002 136.259 45.249C136.13 44.7907 136.065 44.3359 136.065 43.8848ZM144.605 44.2393C144.605 44.4899 144.616 44.7262 144.638 44.9482C144.659 45.1631 144.706 45.3529 144.777 45.5176C144.849 45.6823 144.956 45.8148 145.1 45.915C145.243 46.0153 145.433 46.0654 145.669 46.0654C145.762 46.0654 145.895 46.0511 146.066 46.0225C146.238 45.9938 146.403 45.9473 146.561 45.8828V46.6777C146.374 46.778 146.17 46.8675 145.948 46.9463C145.733 47.0179 145.519 47.0537 145.304 47.0537C145.132 47.0537 144.978 47.0358 144.842 47C144.706 46.9714 144.577 46.9248 144.455 46.8604C144.34 46.7887 144.229 46.71 144.122 46.624C144.015 46.5381 143.907 46.4414 143.8 46.334C143.678 46.2122 143.581 46.0726 143.51 45.915C143.438 45.7503 143.384 45.582 143.349 45.4102C143.32 45.2311 143.302 45.0521 143.295 44.873C143.295 44.694 143.295 44.5186 143.295 44.3467V40.9414H144.605V44.2393ZM148.312 40.9414V47H147.141L147.001 46.377V40.9414H148.312ZM151.427 45.1523C151.427 45.3958 151.459 45.5892 151.523 45.7324C151.588 45.8685 151.677 45.9723 151.792 46.0439C151.907 46.1084 152.035 46.1514 152.179 46.1729C152.329 46.1943 152.49 46.2051 152.662 46.2051V47C152.569 47.0143 152.472 47.0251 152.372 47.0322C152.293 47.0394 152.2 47.043 152.093 47.043C151.985 47.0501 151.878 47.0537 151.771 47.0537C151.663 47.0537 151.556 47.0501 151.448 47.043C151.341 47.0358 151.244 47.0251 151.158 47.0107C150.915 46.9606 150.725 46.8532 150.589 46.6885C150.453 46.5238 150.349 46.3411 150.277 46.1406C150.206 45.9329 150.159 45.7324 150.138 45.5391C150.123 45.3457 150.116 45.1953 150.116 45.0879V44.959V38.6533H151.427V45.1523ZM156.852 40.8877C157.238 40.9235 157.586 41.0273 157.894 41.1992C158.209 41.3711 158.477 41.5931 158.699 41.8652C158.921 42.1374 159.09 42.4489 159.204 42.7998C159.326 43.1507 159.387 43.516 159.387 43.8955C159.387 44.0674 159.376 44.2393 159.354 44.4111H155.67V43.4658H158.151C158.151 43.2796 158.119 43.1006 158.055 42.9287C157.997 42.7568 157.908 42.5993 157.786 42.4561C157.672 42.3057 157.535 42.1803 157.378 42.0801C157.22 41.9798 157.045 41.9189 156.852 41.8975V40.8877ZM156.809 45.9902C156.887 45.9902 156.984 45.9831 157.099 45.9688C157.22 45.9473 157.346 45.915 157.475 45.8721C157.611 45.8219 157.743 45.7611 157.872 45.6895C158.008 45.6178 158.126 45.5319 158.227 45.4316L158.699 46.1514C158.463 46.445 158.187 46.667 157.872 46.8174C157.557 46.9678 157.156 47.043 156.669 47.043C156.275 47.043 155.906 46.9642 155.562 46.8066C155.219 46.6419 154.925 46.4199 154.682 46.1406C154.438 45.8613 154.245 45.5355 154.102 45.1631C153.958 44.7907 153.887 44.3896 153.887 43.96C153.887 43.5518 153.951 43.165 154.08 42.7998C154.216 42.4346 154.399 42.1159 154.628 41.8438C154.857 41.5645 155.122 41.3389 155.423 41.167C155.731 40.9951 156.06 40.8984 156.411 40.877V41.9082C156.146 41.9583 155.928 42.0658 155.756 42.2305C155.584 42.3952 155.448 42.585 155.348 42.7998C155.255 43.0075 155.187 43.2223 155.144 43.4443C155.108 43.6663 155.09 43.8561 155.09 44.0137C155.09 44.293 155.122 44.5544 155.187 44.7979C155.258 45.0342 155.366 45.2419 155.509 45.4209C155.652 45.5928 155.827 45.7324 156.035 45.8398C156.25 45.9401 156.508 45.9902 156.809 45.9902ZM160.826 47.6553C160.891 47.5693 160.984 47.3975 161.105 47.1396C161.227 46.889 161.349 46.5775 161.471 46.2051C161.592 45.8255 161.696 45.3923 161.782 44.9053C161.868 44.4183 161.908 43.8955 161.9 43.3369C161.893 42.6995 161.85 42.1266 161.771 41.6182C161.7 41.1025 161.618 40.6549 161.524 40.2754C161.431 39.8958 161.335 39.5879 161.234 39.3516C161.141 39.1152 161.07 38.9541 161.02 38.8682H161.696C161.825 39.0472 161.954 39.2979 162.083 39.6201C162.219 39.9424 162.337 40.304 162.438 40.7051C162.538 41.099 162.62 41.5072 162.685 41.9297C162.749 42.3451 162.781 42.7425 162.781 43.1221C162.781 43.516 162.745 43.9385 162.674 44.3896C162.602 44.8408 162.509 45.2777 162.395 45.7002C162.287 46.1156 162.158 46.4987 162.008 46.8496C161.865 47.1934 161.718 47.4619 161.567 47.6553H160.826Z" fill="black"/>
</svg>
